<svg width="16" height="16" viewBox="0 0 16 16" fill="none" xmlns="http://www.w3.org/2000/svg">
<path d="M15.6377 7.87728L8.84548 1.08861L8.39021 0.633334C8.28648 0.530285 8.14619 0.47245 7.99997 0.47245C7.85376 0.47245 7.71347 0.530285 7.60974 0.633334L0.36228 7.87728C0.255987 7.98316 0.171982 8.10926 0.115223 8.24814C0.0584644 8.38701 0.0301024 8.53585 0.0318111 8.68587C0.0388424 9.30462 0.553881 9.79857 1.17263 9.79857H1.9197V15.5238H14.0802V9.79857H14.8431C15.1437 9.79857 15.4267 9.6808 15.6394 9.4681C15.7442 9.36371 15.8271 9.23957 15.8836 9.10289C15.94 8.9662 15.9687 8.81968 15.9681 8.67181C15.9681 8.37298 15.8504 8.08997 15.6377 7.87728V7.87728ZM8.98435 14.2581H7.0156V10.6722H8.98435V14.2581ZM12.8146 8.53294V14.2581H10.1093V10.2503C10.1093 9.86185 9.7947 9.5472 9.40622 9.5472H6.59372C6.20525 9.5472 5.8906 9.86185 5.8906 10.2503V14.2581H3.18533V8.53294H1.49783L8.00173 2.03431L8.40779 2.44037L14.5039 8.53294H12.8146Z" fill="#8C8C8C"/>
</svg>
