<svg width="16" height="16" viewBox="0 0 16 16" fill="none" xmlns="http://www.w3.org/2000/svg">
<path d="M13.4145 11.9312C13.1197 11.2331 12.692 10.5989 12.1551 10.0641C11.6198 9.52767 10.9858 9.10001 10.2879 8.80469C10.2816 8.80156 10.2754 8.8 10.2691 8.79688C11.2426 8.09375 11.8754 6.94844 11.8754 5.65625C11.8754 3.51562 10.141 1.78125 8.0004 1.78125C5.85977 1.78125 4.1254 3.51562 4.1254 5.65625C4.1254 6.94844 4.75821 8.09375 5.73165 8.79844C5.7254 8.80156 5.71915 8.80312 5.7129 8.80625C5.0129 9.10156 4.38477 9.525 3.84571 10.0656C3.30932 10.6009 2.88165 11.235 2.58634 11.9328C2.29621 12.616 2.13974 13.3485 2.1254 14.0906C2.12498 14.1073 2.12791 14.1239 2.134 14.1394C2.1401 14.1549 2.14924 14.1691 2.16089 14.181C2.17253 14.193 2.18646 14.2025 2.20183 14.2089C2.2172 14.2154 2.23372 14.2188 2.2504 14.2188H3.1879C3.25665 14.2188 3.31134 14.1641 3.3129 14.0969C3.34415 12.8906 3.82852 11.7609 4.68477 10.9047C5.57071 10.0188 6.74727 9.53125 8.0004 9.53125C9.25352 9.53125 10.4301 10.0188 11.316 10.9047C12.1723 11.7609 12.6566 12.8906 12.6879 14.0969C12.6895 14.1656 12.7441 14.2188 12.8129 14.2188H13.7504C13.7671 14.2188 13.7836 14.2154 13.799 14.2089C13.8143 14.2025 13.8283 14.193 13.8399 14.181C13.8516 14.1691 13.8607 14.1549 13.8668 14.1394C13.8729 14.1239 13.8758 14.1073 13.8754 14.0906C13.8598 13.3437 13.7051 12.6172 13.4145 11.9312V11.9312ZM8.0004 8.34375C7.28321 8.34375 6.60821 8.06406 6.1004 7.55625C5.59259 7.04844 5.3129 6.37344 5.3129 5.65625C5.3129 4.93906 5.59259 4.26406 6.1004 3.75625C6.60821 3.24844 7.28321 2.96875 8.0004 2.96875C8.71759 2.96875 9.39259 3.24844 9.9004 3.75625C10.4082 4.26406 10.6879 4.93906 10.6879 5.65625C10.6879 6.37344 10.4082 7.04844 9.9004 7.55625C9.39259 8.06406 8.71759 8.34375 8.0004 8.34375Z" fill="white"/>
</svg>
